<?xml version="1.0" encoding="UTF-8" standalone="no"?>
<!-- Created with Inkscape (http://www.inkscape.org/) -->

<svg
   width="3840"
   height="2160"
   viewBox="0 0 3840 2160"
   version="1.1"
   id="svg5"
   xmlns="http://www.w3.org/2000/svg"
   xmlns:svg="http://www.w3.org/2000/svg">
  <defs
     id="defs2" />
  <g
     id="layer1"
     style="display:inline">
    <path
       style="color:#000000;fill:#0321ab;stroke:#0321ab;stroke-opacity:1;-inkscape-stroke:none;fill-opacity:1"
       d="m 1803.2207,882.33398 c -122.5055,0 -240.024,48.67827 -326.6484,135.30272 -86.6245,86.6245 -135.3028,204.143 -135.3028,326.6485 0,122.5055 48.6783,240.0259 135.3028,326.6503 86.6244,86.6245 204.1429,135.3008 326.6484,135.3008 122.5055,0 240.0259,-48.6763 326.6504,-135.3008 86.6245,-86.6244 135.3008,-204.1448 135.3008,-326.6503 0,-122.5055 -48.6763,-240.024 -135.3008,-326.6485 -86.6245,-86.62445 -204.1449,-135.30272 -326.6504,-135.30272 z m 0,60 c 106.6156,0 208.8341,42.33992 284.2227,117.72852 75.3886,75.3886 117.7285,177.6071 117.7285,284.2227 0,106.6155 -42.3399,208.834 -117.7285,284.2226 -75.3886,75.3886 -177.6071,117.7285 -284.2227,117.7285 -106.6156,0 -208.8341,-42.3399 -284.2227,-117.7285 -75.3886,-75.3886 -117.7285,-177.6071 -117.7285,-284.2226 0,-106.6156 42.3399,-208.8341 117.7285,-284.2227 75.3886,-75.3886 177.6071,-117.72852 284.2227,-117.72852 z"
       id="path848" />
    <path
       style="fill:none;stroke:#0321ab;stroke-width:60;stroke-linecap:butt;stroke-linejoin:miter;stroke-miterlimit:4;stroke-dasharray:none;stroke-opacity:1"
       d="M 1371.2697,1806.2371 V 349.99481"
       id="path1309" />
  </g>
  <g
     id="layer2">
    <path
       style="fill:none;stroke:#f3ca20;stroke-width:60;stroke-linecap:butt;stroke-linejoin:miter;stroke-miterlimit:4;stroke-dasharray:none;stroke-opacity:1"
       d="M 1371.2697,1806.2371 V 906.23706"
       id="path1309-4" />
    <path
       id="path848-3"
       style="color:#000000;fill:#f3ca20;stroke:#f3ca20;stroke-opacity:1;-inkscape-stroke:none;fill-opacity:1"
       d="m 1802.5566,883.68359 c -80.9323,0 -159.6251,21.36504 -228.7343,60.76172 -1.448,0.82542 -2.9122,1.61961 -4.3516,2.46094 -33.8511,19.78586 -65.3649,43.88248 -93.5625,72.08005 -86.0326,86.0327 -134.5801,202.545 -135.2402,324.1446 h 60 c 0.659,-105.7088 42.8692,-206.9221 117.666,-281.7188 24.4608,-24.4608 51.7813,-45.3775 81.125,-62.56249 1.4394,-0.84296 2.9043,-1.63628 4.3535,-2.46094 60.0613,-34.17757 128.4183,-52.70508 198.7441,-52.70508 70.3295,0 138.6905,18.53006 198.7539,52.71094 l 29.9903,-51.94531 c -69.1118,-39.39969 -147.8086,-60.76563 -228.7442,-60.76563 z" />
    <path
       id="path21941"
       style="color:#000000;fill:#f3ca20;-inkscape-stroke:none;fill-opacity:1"
       d="m 2005.6641,998.85547 29.9902,-51.94336 c -1.4401,-0.84175 -2.9049,-1.63706 -4.3535,-2.46289 l -29.9903,51.94531 c 1.4491,0.82462 2.9143,1.61801 4.3536,2.46094 z" />
    <path
       id="path21925"
       style="color:#000000;fill:#f3ca20;-inkscape-stroke:none;fill-opacity:1"
       d="m 1400.668,1343.1309 h -60 c 0,0.8365 -0.062,1.6668 -0.062,2.5039 0,0.8344 0.058,1.6621 0.062,2.4961 h 60 c -0.01,-0.8339 -0.062,-1.6617 -0.062,-2.4961 0,-0.8371 0.057,-1.6675 0.062,-2.5039 z" />
  </g>
</svg>
